<?xml version="1.0" encoding="UTF-8"?> <svg xmlns="http://www.w3.org/2000/svg" width="32" height="32" viewBox="0 0 32 32" fill="none"><path d="M1.5 2C1.08333 2 0.729167 2.14583 0.4375 2.4375C0.145833 2.72917 0 3.08333 0 3.5V18.75C0 19.2917 0.125 19.8125 0.375 20.3125C0.625 20.8125 0.96875 21.2292 1.40625 21.5625L11.5938 29.1875C12.0938 29.5625 12.6146 29.6146 13.1562 29.3438C13.7188 29.0729 14 28.625 14 28V3.5C14 3.08333 13.8542 2.72917 13.5625 2.4375C13.2708 2.14583 12.9167 2 12.5 2H1.5ZM19.5 2C19.0833 2 18.7292 2.14583 18.4375 2.4375C18.1458 2.72917 18 3.08333 18 3.5V18.75C18 19.2917 18.125 19.8125 18.375 20.3125C18.625 20.8125 18.9688 21.2292 19.4062 21.5625L29.5938 29.1875C30.0938 29.5625 30.6146 29.6146 31.1562 29.3438C31.7188 29.0729 32 28.625 32 28V3.5C32 3.08333 31.8542 2.72917 31.5625 2.4375C31.2708 2.14583 30.9167 2 30.5 2H19.5Z" fill="#5E6821"></path></svg> 